<svg xmlns="http://www.w3.org/2000/svg" viewBox="0 0 370 370"><defs><style>.cls-1{fill:none;}.cls-2{fill:#132f45;}.cls-3{fill:#e2ac3f;}</style></defs><g id="Layer_2" data-name="Layer 2"><g id="Layer_1-2" data-name="Layer 1"><rect class="cls-1" width="370" height="370" rx="28.82"/><rect class="cls-2" x="38.01" y="164.19" width="34.57" height="63.52" rx="3.32"/><rect class="cls-2" x="80.36" y="136.97" width="35.44" height="90.74" rx="3.32"/><rect class="cls-2" x="123.57" y="109.75" width="34.57" height="117.96" rx="3.32"/><path class="cls-3" d="M200.94,189.05l-13-2.5a17.61,17.61,0,0,1,6.24-10.22q4.62-3.56,13.08-3.55,9.72,0,14.05,3.88a12.5,12.5,0,0,1,4.33,9.74,11.36,11.36,0,0,1-1.76,6.23,15.27,15.27,0,0,1-5.31,4.9,15.06,15.06,0,0,1,4.4,1.77,11.14,11.14,0,0,1,3.84,4.3,13.74,13.74,0,0,1,1.37,6.35,18.58,18.58,0,0,1-2.27,8.9,15.7,15.7,0,0,1-6.53,6.56q-4.26,2.29-11.2,2.3-6.77,0-10.68-1.7a16,16,0,0,1-6.43-5,23.62,23.62,0,0,1-3.88-8.24l13.78-2c.54,3,1.38,5,2.52,6.18a6.17,6.17,0,0,0,9-.45,8.66,8.66,0,0,0,1.84-5.8A8.42,8.42,0,0,0,212.5,205a6.07,6.07,0,0,0-4.83-2,16.33,16.33,0,0,0-4.46.87l.71-10.55a12.25,12.25,0,0,0,1.79.18,6.23,6.23,0,0,0,6.33-6.23,5.43,5.43,0,0,0-1.35-3.87A4.86,4.86,0,0,0,207,182a5.27,5.27,0,0,0-4,1.57C202,184.57,201.3,186.42,200.94,189.05Z"/><path class="cls-3" d="M236.24,173.68H259a25.73,25.73,0,0,1,10.88,2,18,18,0,0,1,6.86,5.62,24,24,0,0,1,3.92,8.51,42.29,42.29,0,0,1,1.22,10.29q0,8.52-1.81,13.21a21.87,21.87,0,0,1-5,7.86,16,16,0,0,1-6.9,4.22A33.25,33.25,0,0,1,259,226.8H236.24Zm15.33,12v29h3.76q4.8,0,6.84-1.14a7.63,7.63,0,0,0,3.18-4q1.15-2.85,1.15-9.22,0-8.44-2.57-11.56t-8.53-3.12Z"/><path class="cls-3" d="M289.89,173.68h25.48q8.33,0,12.48,4.24T332,190q0,8-4.52,12.57t-13.79,4.53h-8.39V226.8h-15.4Zm15.4,22.65h3.76c2.95,0,5-.55,6.22-1.65a5.46,5.46,0,0,0,1.8-4.22,6.12,6.12,0,0,0-1.56-4.24q-1.56-1.74-5.86-1.74h-4.36Z"/><path class="cls-2" d="M38,245.34h4a6,6,0,0,1,2.27.33,4,4,0,0,1,1.42,1.12,5.76,5.76,0,0,1,1,2,11.41,11.41,0,0,1,.37,3.11,9.76,9.76,0,0,1-.39,2.91,5.79,5.79,0,0,1-1,2,3.82,3.82,0,0,1-1.43,1.09,5.51,5.51,0,0,1-2.15.36H38Zm2.17,2.19v8.54h1.63a4.25,4.25,0,0,0,1.52-.2,1.82,1.82,0,0,0,.78-.58,3.27,3.27,0,0,0,.49-1.24,9.55,9.55,0,0,0,.2-2.22,10.21,10.21,0,0,0-.2-2.26,2.83,2.83,0,0,0-.63-1.3,2,2,0,0,0-1-.63,9.29,9.29,0,0,0-1.76-.11Z"/><path class="cls-2" d="M53,251.52l-1.88-.4a3,3,0,0,1,3.39-2.66,4.44,4.44,0,0,1,2,.36,2.18,2.18,0,0,1,1,1,6.12,6.12,0,0,1,.29,2.27l0,2.89a12.91,12.91,0,0,0,.1,1.81,6.49,6.49,0,0,0,.37,1.26h-2l-.26-1a4,4,0,0,1-1.14.93,2.73,2.73,0,0,1-1.29.31,2.5,2.5,0,0,1-1.87-.75,2.8,2.8,0,0,1-.72-2,3.12,3.12,0,0,1,.29-1.38,2.42,2.42,0,0,1,.84-1,5.67,5.67,0,0,1,1.72-.62,9.76,9.76,0,0,0,2-.61,2.8,2.8,0,0,0-.11-1,.8.8,0,0,0-.41-.4,2,2,0,0,0-.85-.16,1.46,1.46,0,0,0-.88.25A1.75,1.75,0,0,0,53,251.52Zm2.76,2a9.26,9.26,0,0,1-1.23.37,2.88,2.88,0,0,0-1.25.55,1.06,1.06,0,0,0-.3.78,1.3,1.3,0,0,0,.33.9,1,1,0,0,0,.82.37,1.52,1.52,0,0,0,.87-.3,1.59,1.59,0,0,0,.6-.7,4.46,4.46,0,0,0,.16-1.47Z"/><path class="cls-2" d="M66.56,248.68v2H65.15v3.78a8.57,8.57,0,0,0,.06,1.42.49.49,0,0,0,.51.35,2.28,2.28,0,0,0,.83-.24l.18,1.92a3.46,3.46,0,0,1-1.63.37,2,2,0,0,1-1.26-.37,1.82,1.82,0,0,1-.64-1.07,10.13,10.13,0,0,1-.13-2.08v-4.08h-1v-2h1v-1.86l2.08-1.44v3.3Z"/><path class="cls-2" d="M72.69,251.52l-1.88-.4a3,3,0,0,1,3.39-2.66,4.44,4.44,0,0,1,2,.36,2.18,2.18,0,0,1,1,1,6.12,6.12,0,0,1,.29,2.27l0,2.89a12.91,12.91,0,0,0,.1,1.81,6.49,6.49,0,0,0,.37,1.26H75.88l-.26-1a4,4,0,0,1-1.14.93,2.73,2.73,0,0,1-1.29.31,2.5,2.5,0,0,1-1.87-.75,2.8,2.8,0,0,1-.72-2,3.12,3.12,0,0,1,.29-1.38,2.42,2.42,0,0,1,.84-1,5.67,5.67,0,0,1,1.72-.62,9.76,9.76,0,0,0,2-.61,2.8,2.8,0,0,0-.11-1,.8.8,0,0,0-.41-.4,1.92,1.92,0,0,0-.85-.16,1.41,1.41,0,0,0-.87.25A1.69,1.69,0,0,0,72.69,251.52Zm2.76,2a9.26,9.26,0,0,1-1.23.37,2.88,2.88,0,0,0-1.25.55,1.06,1.06,0,0,0-.3.78,1.3,1.3,0,0,0,.33.9,1,1,0,0,0,.82.37,1.52,1.52,0,0,0,.87-.3,1.59,1.59,0,0,0,.6-.7,4.46,4.46,0,0,0,.16-1.47Z"/><path class="cls-2" d="M81.8,260.25V243.33h1.64v16.92Z"/><path class="cls-2" d="M87.32,245.34h4a6,6,0,0,1,2.27.33A3.84,3.84,0,0,1,95,246.79a5.77,5.77,0,0,1,1,2,11.45,11.45,0,0,1,.36,3.11,9.78,9.78,0,0,1-.38,2.91,5.79,5.79,0,0,1-1,2,3.82,3.82,0,0,1-1.43,1.09,5.53,5.53,0,0,1-2.16.36H87.32Zm2.17,2.19v8.54h1.63a4.25,4.25,0,0,0,1.52-.2,1.88,1.88,0,0,0,.78-.58,3.27,3.27,0,0,0,.49-1.24,9.55,9.55,0,0,0,.2-2.22,10.21,10.21,0,0,0-.2-2.26,3,3,0,0,0-.63-1.3,2,2,0,0,0-1-.63,9.29,9.29,0,0,0-1.76-.11Z"/><path class="cls-2" d="M102.3,258.25h-2.07V248.9h1.92v1.33A4,4,0,0,1,103,249a1.39,1.39,0,0,1,.9-.31,2.29,2.29,0,0,1,1.36.47l-.65,2.15a1.57,1.57,0,0,0-1-.4,1.07,1.07,0,0,0-.76.31,2.18,2.18,0,0,0-.47,1.14,21.66,21.66,0,0,0-.14,3Z"/><path class="cls-2" d="M109.16,247.63v-2.29h2.07v2.29Zm0,10.62V248.9h2.07v9.35Z"/><path class="cls-2" d="M118.27,258.25l-3.17-9.35h2.17l1.47,4.77.44,1.6.43-1.6,1.5-4.77h2.12l-3.12,9.35Z"/><path class="cls-2" d="M132.24,255.06l2.06.42a4,4,0,0,1-1.29,2.09,3.36,3.36,0,0,1-2.12.68,3.28,3.28,0,0,1-2.68-1.14,5.58,5.58,0,0,1-1.11-3.7,5.85,5.85,0,0,1,1.12-3.76,3,3,0,0,1,2.46-1.19,3.15,3.15,0,0,1,2.63,1.22,6.56,6.56,0,0,1,1.1,4.11v.28h-5.18a2.71,2.71,0,0,0,.51,1.72,1.45,1.45,0,0,0,1.18.61C131.58,256.4,132,256,132.24,255.06Zm.11-2.51a2.65,2.65,0,0,0-.48-1.64,1.32,1.32,0,0,0-1.06-.56,1.38,1.38,0,0,0-1.11.58,2.6,2.6,0,0,0-.45,1.62Z"/><path class="cls-2" d="M145.4,258.25h-2.07v-4.78a9.64,9.64,0,0,0-.12-1.91,1.25,1.25,0,0,0-.43-.73,1.14,1.14,0,0,0-.72-.26,1.5,1.5,0,0,0-.95.33,1.78,1.78,0,0,0-.59.92,9.37,9.37,0,0,0-.17,2.19v4.24h-2.07V248.9h1.92v1.37a3.65,3.65,0,0,1,1.15-1.19,2.61,2.61,0,0,1,1.42-.4,2.53,2.53,0,0,1,1.53.46,2.39,2.39,0,0,1,.87,1.19,7.52,7.52,0,0,1,.23,2.1Z"/><path class="cls-2" d="M149.27,260.25V243.33h1.65v16.92Z"/><path class="cls-2" d="M154.79,245.34h4a6,6,0,0,1,2.27.33,3.79,3.79,0,0,1,1.42,1.12,5.6,5.6,0,0,1,1,2,11,11,0,0,1,.37,3.11,9.76,9.76,0,0,1-.39,2.91,5.61,5.61,0,0,1-1,2,3.82,3.82,0,0,1-1.43,1.09,5.44,5.44,0,0,1-2.15.36h-4.09Zm2.17,2.19v8.54h1.63a4.35,4.35,0,0,0,1.53-.2,1.85,1.85,0,0,0,.77-.58,3.43,3.43,0,0,0,.5-1.24,10.22,10.22,0,0,0,.19-2.22,9.64,9.64,0,0,0-.2-2.26,2.83,2.83,0,0,0-.63-1.3,2,2,0,0,0-1-.63,9.49,9.49,0,0,0-1.77-.11Z"/><path class="cls-2" d="M172.84,255.06l2.06.42a4,4,0,0,1-1.29,2.09,3.36,3.36,0,0,1-2.12.68,3.28,3.28,0,0,1-2.68-1.14,5.58,5.58,0,0,1-1.11-3.7,5.85,5.85,0,0,1,1.12-3.76,3,3,0,0,1,2.46-1.19,3.15,3.15,0,0,1,2.63,1.22,6.56,6.56,0,0,1,1.1,4.11v.28h-5.18a2.71,2.71,0,0,0,.51,1.72,1.45,1.45,0,0,0,1.18.61C172.18,256.4,172.62,256,172.84,255.06Zm.11-2.51a2.65,2.65,0,0,0-.48-1.64,1.32,1.32,0,0,0-1.06-.56,1.38,1.38,0,0,0-1.11.58,2.6,2.6,0,0,0-.45,1.62Z"/><path class="cls-2" d="M186.16,251.44l-2,.44c-.15-1-.62-1.47-1.42-1.47a1.49,1.49,0,0,0-1.24.63,3.77,3.77,0,0,0-.46,2.15,4.44,4.44,0,0,0,.46,2.36,1.47,1.47,0,0,0,1.25.68,1.3,1.3,0,0,0,1-.39,2.64,2.64,0,0,0,.54-1.38l2,.41q-.63,3.38-3.62,3.38a3.15,3.15,0,0,1-2.84-1.43,6.16,6.16,0,0,1-.92-3.44,5.64,5.64,0,0,1,1-3.66,3.74,3.74,0,0,1,5-.55A4.07,4.07,0,0,1,186.16,251.44Z"/><path class="cls-2" d="M190.13,247.63v-2.29h2.07v2.29Zm0,10.62V248.9h2.07v9.35Z"/><path class="cls-2" d="M196.07,255.37l2.07-.38a1.57,1.57,0,0,0,1.67,1.47,1.83,1.83,0,0,0,1.12-.28.9.9,0,0,0,.37-.73.67.67,0,0,0-.17-.48,1.49,1.49,0,0,0-.67-.31,9.39,9.39,0,0,1-3.24-1.27,2.55,2.55,0,0,1-.86-2,2.72,2.72,0,0,1,.84-2.09,3.44,3.44,0,0,1,2.45-.79,3.94,3.94,0,0,1,2.34.59,3.22,3.22,0,0,1,1.12,1.88l-2,.44a1.34,1.34,0,0,0-1.47-1.13,2,2,0,0,0-1.09.22.65.65,0,0,0-.32.56.62.62,0,0,0,.29.51,8.94,8.94,0,0,0,1.84.64,5,5,0,0,1,2.36,1.16,2.61,2.61,0,0,1,.61,1.8,2.93,2.93,0,0,1-.95,2.24,3.68,3.68,0,0,1-2.62.88,3.94,3.94,0,0,1-2.47-.73A3.53,3.53,0,0,1,196.07,255.37Z"/><path class="cls-2" d="M207.25,247.63v-2.29h2.07v2.29Zm0,10.62V248.9h2.07v9.35Z"/><path class="cls-2" d="M213.19,253.22a5.6,5.6,0,0,1,.56-2.5A4,4,0,0,1,215.2,249a3.69,3.69,0,0,1,2-.57,3.46,3.46,0,0,1,3,1.45,5.53,5.53,0,0,1,1.08,3.39,5.82,5.82,0,0,1-.56,2.61,4.08,4.08,0,0,1-1.47,1.75,3.63,3.63,0,0,1-2,.59,3.67,3.67,0,0,1-2.89-1.31A5.48,5.48,0,0,1,213.19,253.22Zm2.12.14a3.47,3.47,0,0,0,.57,2.15,1.69,1.69,0,0,0,1.37.72,1.65,1.65,0,0,0,1.34-.73,3.55,3.55,0,0,0,.55-2.16,3.49,3.49,0,0,0-.56-2.13,1.62,1.62,0,0,0-2.71,0A3.51,3.51,0,0,0,215.31,253.36Z"/><path class="cls-2" d="M232.26,258.25h-2.07v-4.78a9.64,9.64,0,0,0-.12-1.91,1.3,1.3,0,0,0-.43-.73,1.16,1.16,0,0,0-.73-.26,1.5,1.5,0,0,0-.94.33,1.78,1.78,0,0,0-.59.92,8.83,8.83,0,0,0-.17,2.19v4.24h-2.08V248.9h1.92v1.37a3.78,3.78,0,0,1,1.16-1.19,2.61,2.61,0,0,1,1.42-.4,2.53,2.53,0,0,1,1.53.46,2.37,2.37,0,0,1,.86,1.19,7.1,7.1,0,0,1,.24,2.1Z"/><path class="cls-2" d="M247.31,260.25V243.33H249v16.92Z"/><path class="cls-2" d="M252.82,258.25V245.34h3.5a11,11,0,0,1,2.56.19,2.89,2.89,0,0,1,1.59,1.28,5.39,5.39,0,0,1,.08,4.86,3.17,3.17,0,0,1-1.34,1.33,7.27,7.27,0,0,1-2.79.38H255v4.87ZM255,247.53v3.67h1.2a5.38,5.38,0,0,0,1.65-.17,1.48,1.48,0,0,0,.72-.6,2,2,0,0,0,.28-1.08,2,2,0,0,0-.29-1.08,1.38,1.38,0,0,0-.71-.59,6.62,6.62,0,0,0-1.79-.15Z"/><path class="cls-2" d="M267.05,251.52l-1.87-.4a3,3,0,0,1,3.38-2.66,4.41,4.41,0,0,1,2,.36,2.18,2.18,0,0,1,1,1,5.87,5.87,0,0,1,.3,2.27l0,2.89a11.53,11.53,0,0,0,.1,1.81,5.85,5.85,0,0,0,.37,1.26h-2.05l-.27-1a3.77,3.77,0,0,1-1.14.93,2.72,2.72,0,0,1-1.28.31,2.49,2.49,0,0,1-1.87-.75,2.76,2.76,0,0,1-.73-2,3,3,0,0,1,.3-1.38,2.39,2.39,0,0,1,.83-1,5.75,5.75,0,0,1,1.73-.62,10.2,10.2,0,0,0,2-.61,3.05,3.05,0,0,0-.11-1,.86.86,0,0,0-.42-.4,1.92,1.92,0,0,0-.85-.16,1.41,1.41,0,0,0-.87.25A1.75,1.75,0,0,0,267.05,251.52Zm2.77,2a9.26,9.26,0,0,1-1.23.37,3,3,0,0,0-1.26.55,1,1,0,0,0-.29.78,1.29,1.29,0,0,0,.32.9,1.05,1.05,0,0,0,.82.37,1.53,1.53,0,0,0,.88-.3,1.63,1.63,0,0,0,.59-.7,4.39,4.39,0,0,0,.17-1.47Z"/><path class="cls-2" d="M278.24,258.25h-2.07V248.9h1.92v1.33A4,4,0,0,1,279,249a1.39,1.39,0,0,1,.9-.31,2.29,2.29,0,0,1,1.36.47l-.65,2.15a1.57,1.57,0,0,0-1-.4,1,1,0,0,0-.75.31,2.1,2.1,0,0,0-.48,1.14,21.66,21.66,0,0,0-.14,3Z"/><path class="cls-2" d="M289.54,248.68v2h-1.41v3.78a8.57,8.57,0,0,0,.06,1.42.49.49,0,0,0,.51.35,2.28,2.28,0,0,0,.83-.24l.18,1.92a3.46,3.46,0,0,1-1.63.37,2,2,0,0,1-1.26-.37,1.82,1.82,0,0,1-.64-1.07,10.13,10.13,0,0,1-.13-2.08v-4.08h-.95v-2h.95v-1.86l2.08-1.44v3.3Z"/><path class="cls-2" d="M300.7,258.25h-2.07v-4.78a9.64,9.64,0,0,0-.12-1.91,1.25,1.25,0,0,0-.43-.73,1.12,1.12,0,0,0-.72-.26,1.5,1.5,0,0,0-.95.33,1.78,1.78,0,0,0-.59.92,9.37,9.37,0,0,0-.17,2.19v4.24h-2.07V248.9h1.92v1.37a3.65,3.65,0,0,1,1.15-1.19,2.61,2.61,0,0,1,1.42-.4,2.53,2.53,0,0,1,1.53.46,2.39,2.39,0,0,1,.87,1.19,7.16,7.16,0,0,1,.23,2.1Z"/><path class="cls-2" d="M309.72,255.06l2,.42a4,4,0,0,1-1.28,2.09,3.36,3.36,0,0,1-2.12.68,3.28,3.28,0,0,1-2.68-1.14,5.58,5.58,0,0,1-1.11-3.7,5.85,5.85,0,0,1,1.12-3.76,3,3,0,0,1,2.46-1.19,3.16,3.16,0,0,1,2.63,1.22,6.56,6.56,0,0,1,1.09,4.11v.28h-5.18a2.84,2.84,0,0,0,.51,1.72,1.47,1.47,0,0,0,1.19.61C309.05,256.4,309.5,256,309.72,255.06Zm.11-2.51a2.65,2.65,0,0,0-.48-1.64,1.34,1.34,0,0,0-1.07-.56,1.37,1.37,0,0,0-1.1.58,2.48,2.48,0,0,0-.45,1.62Z"/><path class="cls-2" d="M317.83,258.25h-2.08V248.9h1.92v1.33a4,4,0,0,1,.89-1.24,1.39,1.39,0,0,1,.9-.31,2.33,2.33,0,0,1,1.36.47l-.65,2.15a1.59,1.59,0,0,0-1-.4,1.06,1.06,0,0,0-.76.31,2.1,2.1,0,0,0-.47,1.14,20.15,20.15,0,0,0-.14,3Z"/><path class="cls-2" d="M324.69,255.37l2.07-.38a1.57,1.57,0,0,0,1.67,1.47,1.78,1.78,0,0,0,1.11-.28.87.87,0,0,0,.37-.73.66.66,0,0,0-.16-.48,1.48,1.48,0,0,0-.68-.31,9.41,9.41,0,0,1-3.23-1.27,2.56,2.56,0,0,1-.87-2,2.69,2.69,0,0,1,.85-2.09,3.44,3.44,0,0,1,2.45-.79,3.91,3.91,0,0,1,2.33.59,3.17,3.17,0,0,1,1.12,1.88l-1.94.44a1.36,1.36,0,0,0-1.48-1.13,2,2,0,0,0-1.08.22.64.64,0,0,0-.33.56.61.61,0,0,0,.3.51,8.69,8.69,0,0,0,1.84.64,5,5,0,0,1,2.35,1.16,2.57,2.57,0,0,1,.61,1.8,2.92,2.92,0,0,1-.94,2.24,3.69,3.69,0,0,1-2.62.88,4,4,0,0,1-2.48-.73A3.52,3.52,0,0,1,324.69,255.37Z"/><path class="cls-2" d="M236.13,255.37l2.07-.38a1.57,1.57,0,0,0,1.67,1.47,1.83,1.83,0,0,0,1.12-.28.9.9,0,0,0,.37-.73.67.67,0,0,0-.17-.48,1.43,1.43,0,0,0-.67-.31,9.39,9.39,0,0,1-3.24-1.27,2.59,2.59,0,0,1-.86-2,2.72,2.72,0,0,1,.84-2.09,3.45,3.45,0,0,1,2.45-.79,3.94,3.94,0,0,1,2.34.59,3.22,3.22,0,0,1,1.12,1.88l-1.95.44a1.34,1.34,0,0,0-1.47-1.13,2,2,0,0,0-1.09.22.65.65,0,0,0-.32.56.61.61,0,0,0,.3.51,8.51,8.51,0,0,0,1.83.64,5,5,0,0,1,2.36,1.16,2.61,2.61,0,0,1,.61,1.8,2.93,2.93,0,0,1-.95,2.24,3.68,3.68,0,0,1-2.62.88,3.94,3.94,0,0,1-2.47-.73A3.57,3.57,0,0,1,236.13,255.37Z"/></g></g></svg>